<mxfile host="app.diagrams.net" modified="2023-10-01T12:13:52.661Z" agent="Mozilla/5.0 (X11; Ubuntu; Linux x86_64; rv:109.0) Gecko/20100101 Firefox/117.0" etag="3hHVc15cR4yLRcLvxj2v" version="21.3.0" type="device">
  <diagram id="C5RBs43oDa-KdzZeNtuy" name="Page-1">
    <mxGraphModel dx="1159" dy="748" grid="1" gridSize="10" guides="1" tooltips="1" connect="1" arrows="1" fold="1" page="1" pageScale="1" pageWidth="827" pageHeight="1169" math="0" shadow="0">
      <root>
        <mxCell id="WIyWlLk6GJQsqaUBKTNV-0" />
        <mxCell id="WIyWlLk6GJQsqaUBKTNV-1" parent="WIyWlLk6GJQsqaUBKTNV-0" />
        <mxCell id="0cXUeOkfUa5GUpl3-LKp-5" style="edgeStyle=orthogonalEdgeStyle;rounded=0;orthogonalLoop=1;jettySize=auto;html=1;exitX=0.5;exitY=1;exitDx=0;exitDy=0;" edge="1" parent="WIyWlLk6GJQsqaUBKTNV-1" source="WIyWlLk6GJQsqaUBKTNV-3" target="0cXUeOkfUa5GUpl3-LKp-0">
          <mxGeometry relative="1" as="geometry" />
        </mxCell>
        <mxCell id="WIyWlLk6GJQsqaUBKTNV-3" value="Data pretreatment" style="rounded=1;whiteSpace=wrap;html=1;fontSize=12;glass=0;strokeWidth=1;shadow=0;" parent="WIyWlLk6GJQsqaUBKTNV-1" vertex="1">
          <mxGeometry x="160" y="80" width="120" height="40" as="geometry" />
        </mxCell>
        <mxCell id="0cXUeOkfUa5GUpl3-LKp-10" style="edgeStyle=orthogonalEdgeStyle;rounded=0;orthogonalLoop=1;jettySize=auto;html=1;exitX=1;exitY=0.5;exitDx=0;exitDy=0;" edge="1" parent="WIyWlLk6GJQsqaUBKTNV-1" source="WIyWlLk6GJQsqaUBKTNV-6" target="0cXUeOkfUa5GUpl3-LKp-9">
          <mxGeometry relative="1" as="geometry" />
        </mxCell>
        <mxCell id="0cXUeOkfUa5GUpl3-LKp-27" style="edgeStyle=orthogonalEdgeStyle;rounded=0;orthogonalLoop=1;jettySize=auto;html=1;exitX=0.5;exitY=1;exitDx=0;exitDy=0;" edge="1" parent="WIyWlLk6GJQsqaUBKTNV-1" source="WIyWlLk6GJQsqaUBKTNV-6" target="0cXUeOkfUa5GUpl3-LKp-17">
          <mxGeometry relative="1" as="geometry">
            <Array as="points">
              <mxPoint x="220" y="571" />
              <mxPoint x="470" y="571" />
              <mxPoint x="470" y="20" />
            </Array>
          </mxGeometry>
        </mxCell>
        <mxCell id="WIyWlLk6GJQsqaUBKTNV-6" value="Is the time lag optimal?" style="rhombus;whiteSpace=wrap;html=1;shadow=0;fontFamily=Helvetica;fontSize=12;align=center;strokeWidth=1;spacing=6;spacingTop=6;" parent="WIyWlLk6GJQsqaUBKTNV-1" vertex="1">
          <mxGeometry x="155" y="460" width="130" height="91" as="geometry" />
        </mxCell>
        <mxCell id="0cXUeOkfUa5GUpl3-LKp-6" style="edgeStyle=orthogonalEdgeStyle;rounded=0;orthogonalLoop=1;jettySize=auto;html=1;exitX=0.5;exitY=1;exitDx=0;exitDy=0;" edge="1" parent="WIyWlLk6GJQsqaUBKTNV-1" source="0cXUeOkfUa5GUpl3-LKp-0" target="0cXUeOkfUa5GUpl3-LKp-2">
          <mxGeometry relative="1" as="geometry" />
        </mxCell>
        <mxCell id="0cXUeOkfUa5GUpl3-LKp-0" value="Data split" style="rounded=1;whiteSpace=wrap;html=1;fontSize=12;glass=0;strokeWidth=1;shadow=0;" vertex="1" parent="WIyWlLk6GJQsqaUBKTNV-1">
          <mxGeometry x="160" y="170" width="120" height="40" as="geometry" />
        </mxCell>
        <mxCell id="0cXUeOkfUa5GUpl3-LKp-4" style="edgeStyle=orthogonalEdgeStyle;rounded=0;orthogonalLoop=1;jettySize=auto;html=1;exitX=0.5;exitY=1;exitDx=0;exitDy=0;" edge="1" parent="WIyWlLk6GJQsqaUBKTNV-1" source="0cXUeOkfUa5GUpl3-LKp-1" target="WIyWlLk6GJQsqaUBKTNV-3">
          <mxGeometry relative="1" as="geometry" />
        </mxCell>
        <mxCell id="0cXUeOkfUa5GUpl3-LKp-1" value="Load data" style="rounded=1;whiteSpace=wrap;html=1;fontSize=12;glass=0;strokeWidth=1;shadow=0;" vertex="1" parent="WIyWlLk6GJQsqaUBKTNV-1">
          <mxGeometry x="160" width="120" height="40" as="geometry" />
        </mxCell>
        <mxCell id="0cXUeOkfUa5GUpl3-LKp-7" style="edgeStyle=orthogonalEdgeStyle;rounded=0;orthogonalLoop=1;jettySize=auto;html=1;exitX=0.5;exitY=1;exitDx=0;exitDy=0;" edge="1" parent="WIyWlLk6GJQsqaUBKTNV-1" source="0cXUeOkfUa5GUpl3-LKp-2" target="0cXUeOkfUa5GUpl3-LKp-3">
          <mxGeometry relative="1" as="geometry" />
        </mxCell>
        <mxCell id="0cXUeOkfUa5GUpl3-LKp-2" value="Center and scale" style="rounded=1;whiteSpace=wrap;html=1;fontSize=12;glass=0;strokeWidth=1;shadow=0;" vertex="1" parent="WIyWlLk6GJQsqaUBKTNV-1">
          <mxGeometry x="160" y="240" width="120" height="40" as="geometry" />
        </mxCell>
        <mxCell id="0cXUeOkfUa5GUpl3-LKp-12" style="edgeStyle=orthogonalEdgeStyle;rounded=0;orthogonalLoop=1;jettySize=auto;html=1;exitX=0.5;exitY=1;exitDx=0;exitDy=0;" edge="1" parent="WIyWlLk6GJQsqaUBKTNV-1" source="0cXUeOkfUa5GUpl3-LKp-3" target="0cXUeOkfUa5GUpl3-LKp-8">
          <mxGeometry relative="1" as="geometry" />
        </mxCell>
        <mxCell id="0cXUeOkfUa5GUpl3-LKp-3" value="Create PLS model" style="rounded=1;whiteSpace=wrap;html=1;fontSize=12;glass=0;strokeWidth=1;shadow=0;" vertex="1" parent="WIyWlLk6GJQsqaUBKTNV-1">
          <mxGeometry x="160" y="310" width="120" height="40" as="geometry" />
        </mxCell>
        <mxCell id="0cXUeOkfUa5GUpl3-LKp-13" style="edgeStyle=orthogonalEdgeStyle;rounded=0;orthogonalLoop=1;jettySize=auto;html=1;exitX=0.5;exitY=1;exitDx=0;exitDy=0;" edge="1" parent="WIyWlLk6GJQsqaUBKTNV-1" source="0cXUeOkfUa5GUpl3-LKp-8" target="WIyWlLk6GJQsqaUBKTNV-6">
          <mxGeometry relative="1" as="geometry" />
        </mxCell>
        <mxCell id="0cXUeOkfUa5GUpl3-LKp-8" value="Evaluate performance" style="rounded=1;whiteSpace=wrap;html=1;fontSize=12;glass=0;strokeWidth=1;shadow=0;" vertex="1" parent="WIyWlLk6GJQsqaUBKTNV-1">
          <mxGeometry x="160" y="390" width="120" height="40" as="geometry" />
        </mxCell>
        <mxCell id="0cXUeOkfUa5GUpl3-LKp-11" style="edgeStyle=orthogonalEdgeStyle;rounded=0;orthogonalLoop=1;jettySize=auto;html=1;exitX=0.5;exitY=0;exitDx=0;exitDy=0;entryX=1;entryY=0.5;entryDx=0;entryDy=0;" edge="1" parent="WIyWlLk6GJQsqaUBKTNV-1" source="0cXUeOkfUa5GUpl3-LKp-9" target="0cXUeOkfUa5GUpl3-LKp-3">
          <mxGeometry relative="1" as="geometry" />
        </mxCell>
        <mxCell id="0cXUeOkfUa5GUpl3-LKp-9" value="Lag variables" style="rounded=1;whiteSpace=wrap;html=1;fontSize=12;glass=0;strokeWidth=1;shadow=0;" vertex="1" parent="WIyWlLk6GJQsqaUBKTNV-1">
          <mxGeometry x="330" y="390" width="120" height="40" as="geometry" />
        </mxCell>
        <mxCell id="0cXUeOkfUa5GUpl3-LKp-26" style="edgeStyle=orthogonalEdgeStyle;rounded=0;orthogonalLoop=1;jettySize=auto;html=1;exitX=1;exitY=0.5;exitDx=0;exitDy=0;entryX=1;entryY=0.5;entryDx=0;entryDy=0;" edge="1" parent="WIyWlLk6GJQsqaUBKTNV-1" source="0cXUeOkfUa5GUpl3-LKp-15" target="0cXUeOkfUa5GUpl3-LKp-17">
          <mxGeometry relative="1" as="geometry">
            <Array as="points">
              <mxPoint x="755" y="290" />
              <mxPoint x="755" y="20" />
            </Array>
          </mxGeometry>
        </mxCell>
        <mxCell id="0cXUeOkfUa5GUpl3-LKp-30" style="edgeStyle=orthogonalEdgeStyle;rounded=0;orthogonalLoop=1;jettySize=auto;html=1;exitX=0.5;exitY=1;exitDx=0;exitDy=0;" edge="1" parent="WIyWlLk6GJQsqaUBKTNV-1" source="0cXUeOkfUa5GUpl3-LKp-15" target="0cXUeOkfUa5GUpl3-LKp-28">
          <mxGeometry relative="1" as="geometry" />
        </mxCell>
        <mxCell id="0cXUeOkfUa5GUpl3-LKp-15" value="Is the model still good?" style="rhombus;whiteSpace=wrap;html=1;shadow=0;fontFamily=Helvetica;fontSize=12;align=center;strokeWidth=1;spacing=6;spacingTop=9;verticalAlign=middle;" vertex="1" parent="WIyWlLk6GJQsqaUBKTNV-1">
          <mxGeometry x="520" y="244" width="130" height="91" as="geometry" />
        </mxCell>
        <mxCell id="0cXUeOkfUa5GUpl3-LKp-16" style="edgeStyle=orthogonalEdgeStyle;rounded=0;orthogonalLoop=1;jettySize=auto;html=1;exitX=0.5;exitY=1;exitDx=0;exitDy=0;" edge="1" parent="WIyWlLk6GJQsqaUBKTNV-1" source="0cXUeOkfUa5GUpl3-LKp-17" target="0cXUeOkfUa5GUpl3-LKp-19">
          <mxGeometry relative="1" as="geometry" />
        </mxCell>
        <mxCell id="0cXUeOkfUa5GUpl3-LKp-17" value="Analyze feature importance" style="rounded=1;whiteSpace=wrap;html=1;fontSize=12;glass=0;strokeWidth=1;shadow=0;" vertex="1" parent="WIyWlLk6GJQsqaUBKTNV-1">
          <mxGeometry x="525" width="120" height="40" as="geometry" />
        </mxCell>
        <mxCell id="0cXUeOkfUa5GUpl3-LKp-24" style="edgeStyle=orthogonalEdgeStyle;rounded=0;orthogonalLoop=1;jettySize=auto;html=1;exitX=0.5;exitY=1;exitDx=0;exitDy=0;" edge="1" parent="WIyWlLk6GJQsqaUBKTNV-1" source="0cXUeOkfUa5GUpl3-LKp-19" target="0cXUeOkfUa5GUpl3-LKp-23">
          <mxGeometry relative="1" as="geometry" />
        </mxCell>
        <mxCell id="0cXUeOkfUa5GUpl3-LKp-19" value="Remove unnecessary features" style="rounded=1;whiteSpace=wrap;html=1;fontSize=12;glass=0;strokeWidth=1;shadow=0;" vertex="1" parent="WIyWlLk6GJQsqaUBKTNV-1">
          <mxGeometry x="525" y="80" width="120" height="40" as="geometry" />
        </mxCell>
        <mxCell id="0cXUeOkfUa5GUpl3-LKp-25" style="edgeStyle=orthogonalEdgeStyle;rounded=0;orthogonalLoop=1;jettySize=auto;html=1;exitX=0.5;exitY=1;exitDx=0;exitDy=0;" edge="1" parent="WIyWlLk6GJQsqaUBKTNV-1" source="0cXUeOkfUa5GUpl3-LKp-23" target="0cXUeOkfUa5GUpl3-LKp-15">
          <mxGeometry relative="1" as="geometry" />
        </mxCell>
        <mxCell id="0cXUeOkfUa5GUpl3-LKp-23" value="Evaluate performance" style="rounded=1;whiteSpace=wrap;html=1;fontSize=12;glass=0;strokeWidth=1;shadow=0;" vertex="1" parent="WIyWlLk6GJQsqaUBKTNV-1">
          <mxGeometry x="525" y="162" width="120" height="40" as="geometry" />
        </mxCell>
        <mxCell id="0cXUeOkfUa5GUpl3-LKp-39" style="edgeStyle=orthogonalEdgeStyle;rounded=0;orthogonalLoop=1;jettySize=auto;html=1;exitX=0.5;exitY=1;exitDx=0;exitDy=0;" edge="1" parent="WIyWlLk6GJQsqaUBKTNV-1" source="0cXUeOkfUa5GUpl3-LKp-28" target="0cXUeOkfUa5GUpl3-LKp-29">
          <mxGeometry relative="1" as="geometry" />
        </mxCell>
        <mxCell id="0cXUeOkfUa5GUpl3-LKp-28" value="Return to previous model" style="rounded=1;whiteSpace=wrap;html=1;fontSize=12;glass=0;strokeWidth=1;shadow=0;" vertex="1" parent="WIyWlLk6GJQsqaUBKTNV-1">
          <mxGeometry x="525" y="379" width="120" height="40" as="geometry" />
        </mxCell>
        <mxCell id="0cXUeOkfUa5GUpl3-LKp-42" style="edgeStyle=orthogonalEdgeStyle;rounded=0;orthogonalLoop=1;jettySize=auto;html=1;exitX=0.5;exitY=1;exitDx=0;exitDy=0;" edge="1" parent="WIyWlLk6GJQsqaUBKTNV-1" source="0cXUeOkfUa5GUpl3-LKp-29" target="0cXUeOkfUa5GUpl3-LKp-41">
          <mxGeometry relative="1" as="geometry" />
        </mxCell>
        <mxCell id="0cXUeOkfUa5GUpl3-LKp-29" value="External validation" style="rounded=1;whiteSpace=wrap;html=1;fontSize=12;glass=0;strokeWidth=1;shadow=0;" vertex="1" parent="WIyWlLk6GJQsqaUBKTNV-1">
          <mxGeometry x="525" y="460" width="120" height="40" as="geometry" />
        </mxCell>
        <mxCell id="0cXUeOkfUa5GUpl3-LKp-31" value="Yay" style="rounded=1;whiteSpace=wrap;html=1;fontSize=12;glass=0;strokeWidth=1;shadow=0;" vertex="1" parent="WIyWlLk6GJQsqaUBKTNV-1">
          <mxGeometry x="690" y="545" width="120" height="40" as="geometry" />
        </mxCell>
        <mxCell id="0cXUeOkfUa5GUpl3-LKp-34" value="Yes" style="text;html=1;align=center;verticalAlign=middle;resizable=0;points=[];autosize=1;strokeColor=none;fillColor=none;" vertex="1" parent="WIyWlLk6GJQsqaUBKTNV-1">
          <mxGeometry x="675" y="259" width="40" height="30" as="geometry" />
        </mxCell>
        <mxCell id="0cXUeOkfUa5GUpl3-LKp-35" value="No" style="text;html=1;align=center;verticalAlign=middle;resizable=0;points=[];autosize=1;strokeColor=none;fillColor=none;" vertex="1" parent="WIyWlLk6GJQsqaUBKTNV-1">
          <mxGeometry x="300" y="480" width="40" height="30" as="geometry" />
        </mxCell>
        <mxCell id="0cXUeOkfUa5GUpl3-LKp-37" value="Yes" style="text;html=1;align=center;verticalAlign=middle;resizable=0;points=[];autosize=1;strokeColor=none;fillColor=none;" vertex="1" parent="WIyWlLk6GJQsqaUBKTNV-1">
          <mxGeometry x="219" y="550" width="40" height="30" as="geometry" />
        </mxCell>
        <mxCell id="0cXUeOkfUa5GUpl3-LKp-38" value="No" style="text;html=1;align=center;verticalAlign=middle;resizable=0;points=[];autosize=1;strokeColor=none;fillColor=none;" vertex="1" parent="WIyWlLk6GJQsqaUBKTNV-1">
          <mxGeometry x="584" y="335" width="40" height="30" as="geometry" />
        </mxCell>
        <mxCell id="0cXUeOkfUa5GUpl3-LKp-43" style="edgeStyle=orthogonalEdgeStyle;rounded=0;orthogonalLoop=1;jettySize=auto;html=1;exitX=1;exitY=0.5;exitDx=0;exitDy=0;" edge="1" parent="WIyWlLk6GJQsqaUBKTNV-1" source="0cXUeOkfUa5GUpl3-LKp-41" target="0cXUeOkfUa5GUpl3-LKp-31">
          <mxGeometry relative="1" as="geometry" />
        </mxCell>
        <mxCell id="0cXUeOkfUa5GUpl3-LKp-44" style="edgeStyle=orthogonalEdgeStyle;rounded=0;orthogonalLoop=1;jettySize=auto;html=1;exitX=0.5;exitY=1;exitDx=0;exitDy=0;entryX=0;entryY=0.5;entryDx=0;entryDy=0;" edge="1" parent="WIyWlLk6GJQsqaUBKTNV-1" source="0cXUeOkfUa5GUpl3-LKp-41" target="WIyWlLk6GJQsqaUBKTNV-3">
          <mxGeometry relative="1" as="geometry">
            <Array as="points">
              <mxPoint x="585" y="620" />
              <mxPoint x="100" y="620" />
              <mxPoint x="100" y="100" />
            </Array>
          </mxGeometry>
        </mxCell>
        <mxCell id="0cXUeOkfUa5GUpl3-LKp-41" value="Good?" style="rhombus;whiteSpace=wrap;html=1;shadow=0;fontFamily=Helvetica;fontSize=12;align=center;strokeWidth=1;spacing=6;spacingTop=1;" vertex="1" parent="WIyWlLk6GJQsqaUBKTNV-1">
          <mxGeometry x="520" y="530" width="130" height="70" as="geometry" />
        </mxCell>
        <mxCell id="0cXUeOkfUa5GUpl3-LKp-45" value="Yes" style="text;html=1;align=center;verticalAlign=middle;resizable=0;points=[];autosize=1;strokeColor=none;fillColor=none;" vertex="1" parent="WIyWlLk6GJQsqaUBKTNV-1">
          <mxGeometry x="645" y="540" width="40" height="30" as="geometry" />
        </mxCell>
        <mxCell id="0cXUeOkfUa5GUpl3-LKp-46" value="No" style="text;html=1;align=center;verticalAlign=middle;resizable=0;points=[];autosize=1;strokeColor=none;fillColor=none;" vertex="1" parent="WIyWlLk6GJQsqaUBKTNV-1">
          <mxGeometry x="500" y="597" width="40" height="30" as="geometry" />
        </mxCell>
      </root>
    </mxGraphModel>
  </diagram>
</mxfile>
